<svg width="20" height="20" viewBox="0 0 20 20" fill="none" xmlns="http://www.w3.org/2000/svg">
<path d="M9.99996 18.3333C8.98607 18.2083 7.97913 17.934 6.97913 17.5104C5.97913 17.0868 5.08676 16.4792 4.30204 15.6875C3.51732 14.8958 2.8819 13.8958 2.39579 12.6875C1.90968 11.4792 1.66663 10.0278 1.66663 8.33332V7.49999H2.49996C3.20829 7.49999 3.93746 7.59027 4.68746 7.77082C5.43746 7.95138 6.13885 8.22221 6.79163 8.58332C6.95829 7.38888 7.33676 6.16318 7.92704 4.90624C8.51732 3.6493 9.20829 2.56943 9.99996 1.66666C10.7916 2.56943 11.4826 3.6493 12.0729 4.90624C12.6632 6.16318 13.0416 7.38888 13.2083 8.58332C13.8611 8.22221 14.5625 7.95138 15.3125 7.77082C16.0625 7.59027 16.7916 7.49999 17.5 7.49999H18.3333V8.33332C18.3333 10.0278 18.0902 11.4792 17.6041 12.6875C17.118 13.8958 16.4826 14.8958 15.6979 15.6875C14.9132 16.4792 14.0243 17.0868 13.0312 17.5104C12.0382 17.934 11.0277 18.2083 9.99996 18.3333ZM9.95829 16.625C9.80551 14.3194 9.12149 12.5764 7.90621 11.3958C6.69093 10.2153 5.18051 9.4861 3.37496 9.20832C3.52774 11.5833 4.2326 13.3542 5.48954 14.5208C6.74649 15.6875 8.23607 16.3889 9.95829 16.625ZM9.99996 11.3333C10.2083 11.0278 10.4618 10.7118 10.7604 10.3854C11.059 10.059 11.3472 9.77777 11.625 9.54166C11.5972 8.74999 11.4409 7.9236 11.1562 7.06249C10.8715 6.20138 10.4861 5.3611 9.99996 4.54166C9.51385 5.3611 9.12843 6.20138 8.84371 7.06249C8.55899 7.9236 8.40274 8.74999 8.37496 9.54166C8.65274 9.77777 8.9444 10.059 9.24996 10.3854C9.55551 10.7118 9.80551 11.0278 9.99996 11.3333ZM11.625 16.25C12.1388 16.0833 12.6736 15.8403 13.2291 15.5208C13.7847 15.2014 14.302 14.7674 14.7812 14.2187C15.2604 13.6701 15.6701 12.9861 16.0104 12.1667C16.3507 11.3472 16.5555 10.3611 16.625 9.20832C15.3194 9.40277 14.1736 9.83679 13.1875 10.5104C12.2013 11.184 11.4444 12.0417 10.9166 13.0833C11.0833 13.5278 11.2257 14.0139 11.3437 14.5417C11.4618 15.0694 11.5555 15.6389 11.625 16.25Z" fill="white"/>
</svg>
